<?xml version="1.0" encoding="UTF-8" standalone="no"?>
<!-- Generator: Adobe Illustrator 16.0.0, SVG Export Plug-In . SVG Version: 6.00 Build 0)  -->

<svg
   xmlns:dc="http://purl.org/dc/elements/1.1/"
   xmlns:cc="http://creativecommons.org/ns#"
   xmlns:rdf="http://www.w3.org/1999/02/22-rdf-syntax-ns#"
   xmlns:svg="http://www.w3.org/2000/svg"
   xmlns="http://www.w3.org/2000/svg"
   xmlns:sodipodi="http://sodipodi.sourceforge.net/DTD/sodipodi-0.dtd"
   xmlns:inkscape="http://www.inkscape.org/namespaces/inkscape"
   version="1.1"
   id="Capa_1"
   x="0px"
   y="0px"
   width="64"
   height="64"
   viewBox="0 0 64.000003 63.999998"
   xml:space="preserve"
   inkscape:version="0.91 r13725"
   sodipodi:docname="CSV.svg"><metadata
     id="metadata41"><rdf:RDF><cc:Work
         rdf:about=""><dc:format>image/svg+xml</dc:format><dc:type
           rdf:resource="http://purl.org/dc/dcmitype/StillImage" /><dc:title></dc:title></cc:Work></rdf:RDF></metadata><defs
     id="defs39" /><sodipodi:namedview
     pagecolor="#ffffff"
     bordercolor="#666666"
     borderopacity="1"
     objecttolerance="10"
     gridtolerance="10"
     guidetolerance="10"
     inkscape:pageopacity="0"
     inkscape:pageshadow="2"
     inkscape:window-width="3070"
     inkscape:window-height="1752"
     id="namedview37"
     showgrid="false"
     inkscape:zoom="25.16129"
     inkscape:cx="47.685536"
     inkscape:cy="34.179501"
     inkscape:window-x="130"
     inkscape:window-y="48"
     inkscape:window-maximized="1"
     inkscape:current-layer="Capa_1" /><g
     id="g3"
     transform="matrix(0.10943094,0,0,0.10943094,1.9282458,1.999985)"><path
       d="m 486.2,196.121 -13.164,0 0,-63.531 c 0,-0.399 -0.064,-0.795 -0.116,-1.2 -0.021,-2.52 -0.824,-5 -2.551,-6.96 L 364.656,3.677 C 364.625,3.643 364.592,3.633 364.571,3.602 363.942,2.895 363.207,2.31 362.43,1.806 362.199,1.649 361.968,1.52 361.726,1.387 361.054,1.022 360.34,0.715 359.605,0.494 359.406,0.442 359.228,0.36 359.029,0.306 358.229,0.118 357.4,0 356.562,0 L 96.757,0 C 84.893,0 75.256,9.649 75.256,21.502 l 0,174.613 -13.163,0 c -16.972,0 -30.733,13.756 -30.733,30.73 l 0,159.81 c 0,16.966 13.761,30.736 30.733,30.736 l 13.163,0 0,109.399 c 0,11.854 9.637,21.501 21.501,21.501 l 354.777,0 c 11.853,0 21.502,-9.647 21.502,-21.501 l 0,-109.398 13.164,0 c 16.966,0 30.729,-13.764 30.729,-30.731 l 0,-159.81 c 10e-4,-16.979 -13.763,-30.73 -30.729,-30.73 z M 96.757,21.502 l 249.053,0 0,110.006 c 0,5.94 4.818,10.751 10.751,10.751 l 94.973,0 0,53.861 -354.777,0 0,-174.618 z M 258.618,313.18 c -26.68,-9.291 -44.063,-24.053 -44.063,-47.389 0,-27.404 22.861,-48.368 60.733,-48.368 18.107,0 31.447,3.811 40.968,8.107 l -8.09,29.3 c -6.43,-3.107 -17.862,-7.632 -33.59,-7.632 -15.717,0 -23.339,7.149 -23.339,15.485 0,10.247 9.047,14.769 29.78,22.632 28.341,10.479 41.681,25.239 41.681,47.874 0,26.909 -20.721,49.786 -64.792,49.786 -18.338,0 -36.449,-4.776 -45.497,-9.77 l 7.38,-30.016 c 9.772,5.014 24.775,10.006 40.264,10.006 16.671,0 25.488,-6.908 25.488,-17.396 -0.005,-10.01 -7.632,-15.721 -26.923,-22.619 z M 69.474,302.692 c 0,-54.781 39.074,-85.269 87.654,-85.269 18.822,0 33.113,3.811 39.549,7.149 l -7.392,28.816 c -7.38,-3.084 -17.632,-5.939 -30.491,-5.939 -28.822,0 -51.206,17.375 -51.206,53.099 0,32.158 19.051,52.4 51.456,52.4 10.947,0 23.097,-2.378 30.241,-5.238 l 5.483,28.346 c -6.672,3.34 -21.674,6.919 -41.208,6.919 -55.5,10e-4 -84.086,-34.551 -84.086,-80.283 z m 382.06,218.27 -354.777,0 0,-103.57 354.777,0 0,103.57 z m -24.016,-140.379 -42.399,0 -51.45,-160.536 39.787,0 19.526,67.894 c 5.479,19.046 10.479,37.386 14.299,57.397 l 0.709,0 c 4.048,-19.298 9.045,-38.352 14.526,-56.693 l 20.487,-68.598 38.599,0 -54.084,160.536 z"
       id="path5"
       inkscape:connector-curvature="0" /></g><g
     id="g7"
     transform="translate(0,-484.29102)" /><g
     id="g9"
     transform="translate(0,-484.29102)" /><g
     id="g11"
     transform="translate(0,-484.29102)" /><g
     id="g13"
     transform="translate(0,-484.29102)" /><g
     id="g15"
     transform="translate(0,-484.29102)" /><g
     id="g17"
     transform="translate(0,-484.29102)" /><g
     id="g19"
     transform="translate(0,-484.29102)" /><g
     id="g21"
     transform="translate(0,-484.29102)" /><g
     id="g23"
     transform="translate(0,-484.29102)" /><g
     id="g25"
     transform="translate(0,-484.29102)" /><g
     id="g27"
     transform="translate(0,-484.29102)" /><g
     id="g29"
     transform="translate(0,-484.29102)" /><g
     id="g31"
     transform="translate(0,-484.29102)" /><g
     id="g33"
     transform="translate(0,-484.29102)" /><g
     id="g35"
     transform="translate(0,-484.29102)" /></svg>